# xmcd
#
# Track frame offsets:
#	150
#	34423
#	59643
#	88850
#	118225
#	186313
#	210435
#	239530
#
# Disc length: 3648 seconds
#
# Revision: 0
# Processed by: cddbd v1.5.2PL0 Copyright (c) Steve Scherf et al.
# Submitted via: dBpowerAMP V4.0
#
DISCID=7a0e3e08
DTITLE=Aref - Rozegare gharibist nazanin
DYEAR=1998
DGENRE=Pop
TTITLE0=Nemidonem
TTITLE1=Rozeghare gharibist nazanin
TTITLE2=Khake man
TTITLE3=Vaght amade
TTITLE4=Beman madar
TTITLE5=Music tanha
TTITLE6=Music Nemidonem
TTITLE7=Music  rozeghare gharib
EXTD=
EXTT0=
EXTT1=
EXTT2=
EXTT3=
EXTT4=
EXTT5=
EXTT6=
EXTT7=
PLAYORDER=
